<mxfile host="65bd71144e">
    <diagram id="u1IXutD8dk-Endy1BjFs" name="Vendedor">
        <mxGraphModel dx="1043" dy="790" grid="1" gridSize="10" guides="1" tooltips="1" connect="1" arrows="1" fold="1" page="1" pageScale="1" pageWidth="1169" pageHeight="827" math="0" shadow="0">
            <root>
                <mxCell id="0"/>
                <mxCell id="1" parent="0"/>
                <mxCell id="2" value="Vendedor" style="text;html=1;strokeColor=none;fillColor=none;align=left;verticalAlign=middle;whiteSpace=wrap;rounded=0;fontSize=23;" parent="1" vertex="1">
                    <mxGeometry x="10" y="10" width="120" height="30" as="geometry"/>
                </mxCell>
                <mxCell id="6" value="Vendedor" style="swimlane;fontStyle=0;childLayout=stackLayout;horizontal=1;startSize=26;fillColor=none;horizontalStack=0;resizeParent=1;resizeParentMax=0;resizeLast=0;collapsible=1;marginBottom=0;fontSize=12;" parent="1" vertex="1">
                    <mxGeometry x="30" y="110" width="210" height="182" as="geometry"/>
                </mxCell>
                <mxCell id="7" value="+ EntityAudit: EntityAudit" style="text;strokeColor=none;fillColor=none;align=left;verticalAlign=top;spacingLeft=4;spacingRight=4;overflow=hidden;rotatable=0;points=[[0,0.5],[1,0.5]];portConstraint=eastwest;fontSize=12;" parent="6" vertex="1">
                    <mxGeometry y="26" width="210" height="26" as="geometry"/>
                </mxCell>
                <mxCell id="8" value="+ Nome: string" style="text;strokeColor=none;fillColor=none;align=left;verticalAlign=top;spacingLeft=4;spacingRight=4;overflow=hidden;rotatable=0;points=[[0,0.5],[1,0.5]];portConstraint=eastwest;fontSize=12;" parent="6" vertex="1">
                    <mxGeometry y="52" width="210" height="26" as="geometry"/>
                </mxCell>
                <mxCell id="11" value="+ ComissaoReais: decimal" style="text;strokeColor=none;fillColor=none;align=left;verticalAlign=top;spacingLeft=4;spacingRight=4;overflow=hidden;rotatable=0;points=[[0,0.5],[1,0.5]];portConstraint=eastwest;fontSize=12;" parent="6" vertex="1">
                    <mxGeometry y="78" width="210" height="26" as="geometry"/>
                </mxCell>
                <mxCell id="9" value="+ ComissaoPercentual: Int64" style="text;strokeColor=none;fillColor=none;align=left;verticalAlign=top;spacingLeft=4;spacingRight=4;overflow=hidden;rotatable=0;points=[[0,0.5],[1,0.5]];portConstraint=eastwest;fontSize=12;" parent="6" vertex="1">
                    <mxGeometry y="104" width="210" height="26" as="geometry"/>
                </mxCell>
                <mxCell id="12" value="+ UserId: string" style="text;strokeColor=none;fillColor=none;align=left;verticalAlign=top;spacingLeft=4;spacingRight=4;overflow=hidden;rotatable=0;points=[[0,0.5],[1,0.5]];portConstraint=eastwest;fontSize=12;" parent="6" vertex="1">
                    <mxGeometry y="130" width="210" height="26" as="geometry"/>
                </mxCell>
                <mxCell id="13" value="+ ApplicationUser: ApplicationUser" style="text;strokeColor=none;fillColor=none;align=left;verticalAlign=top;spacingLeft=4;spacingRight=4;overflow=hidden;rotatable=0;points=[[0,0.5],[1,0.5]];portConstraint=eastwest;fontSize=12;" parent="6" vertex="1">
                    <mxGeometry y="156" width="210" height="26" as="geometry"/>
                </mxCell>
                <mxCell id="40" style="edgeStyle=none;html=1;fontSize=12;" parent="1" source="21" target="11" edge="1">
                    <mxGeometry relative="1" as="geometry"/>
                </mxCell>
                <mxCell id="55" style="edgeStyle=none;html=1;fontSize=12;" parent="1" source="21" edge="1">
                    <mxGeometry relative="1" as="geometry">
                        <mxPoint x="240" y="149" as="targetPoint"/>
                    </mxGeometry>
                </mxCell>
                <mxCell id="56" style="edgeStyle=none;html=1;entryX=1;entryY=0.5;entryDx=0;entryDy=0;fontSize=12;" parent="1" source="21" target="12" edge="1">
                    <mxGeometry relative="1" as="geometry"/>
                </mxCell>
                <mxCell id="21" value="VendedorComissao" style="swimlane;fontStyle=0;childLayout=stackLayout;horizontal=1;startSize=26;fillColor=none;horizontalStack=0;resizeParent=1;resizeParentMax=0;resizeLast=0;collapsible=1;marginBottom=0;fontSize=12;" parent="1" vertex="1">
                    <mxGeometry x="340" y="136" width="230" height="182" as="geometry"/>
                </mxCell>
                <mxCell id="22" value="+ EntityAudit: EntityAudit" style="text;strokeColor=none;fillColor=none;align=left;verticalAlign=top;spacingLeft=4;spacingRight=4;overflow=hidden;rotatable=0;points=[[0,0.5],[1,0.5]];portConstraint=eastwest;fontSize=12;" parent="21" vertex="1">
                    <mxGeometry y="26" width="230" height="26" as="geometry"/>
                </mxCell>
                <mxCell id="23" value="+ ValorComissao: decimal" style="text;strokeColor=none;fillColor=none;align=left;verticalAlign=top;spacingLeft=4;spacingRight=4;overflow=hidden;rotatable=0;points=[[0,0.5],[1,0.5]];portConstraint=eastwest;fontSize=12;" parent="21" vertex="1">
                    <mxGeometry y="52" width="230" height="26" as="geometry"/>
                </mxCell>
                <mxCell id="24" value="+ ClienteContratoId: Guid" style="text;strokeColor=none;fillColor=none;align=left;verticalAlign=top;spacingLeft=4;spacingRight=4;overflow=hidden;rotatable=0;points=[[0,0.5],[1,0.5]];portConstraint=eastwest;fontSize=12;" parent="21" vertex="1">
                    <mxGeometry y="78" width="230" height="26" as="geometry"/>
                </mxCell>
                <mxCell id="60" value="+ ClienteContrato: ClienteContrato" style="text;strokeColor=none;fillColor=none;align=left;verticalAlign=top;spacingLeft=4;spacingRight=4;overflow=hidden;rotatable=0;points=[[0,0.5],[1,0.5]];portConstraint=eastwest;fontSize=12;" parent="21" vertex="1">
                    <mxGeometry y="104" width="230" height="26" as="geometry"/>
                </mxCell>
                <mxCell id="61" value="+ VendedorId: Guid" style="text;strokeColor=none;fillColor=none;align=left;verticalAlign=top;spacingLeft=4;spacingRight=4;overflow=hidden;rotatable=0;points=[[0,0.5],[1,0.5]];portConstraint=eastwest;fontSize=12;" parent="21" vertex="1">
                    <mxGeometry y="130" width="230" height="26" as="geometry"/>
                </mxCell>
                <mxCell id="27" value="+ Vendedor: Vendedor" style="text;strokeColor=none;fillColor=none;align=left;verticalAlign=top;spacingLeft=4;spacingRight=4;overflow=hidden;rotatable=0;points=[[0,0.5],[1,0.5]];portConstraint=eastwest;fontSize=12;" parent="21" vertex="1">
                    <mxGeometry y="156" width="230" height="26" as="geometry"/>
                </mxCell>
                <mxCell id="57" style="edgeStyle=none;html=1;entryX=0.095;entryY=1.038;entryDx=0;entryDy=0;entryPerimeter=0;fontSize=12;" parent="1" source="28" target="13" edge="1">
                    <mxGeometry relative="1" as="geometry"/>
                </mxCell>
                <mxCell id="58" style="edgeStyle=none;html=1;fontSize=12;" parent="1" source="28" target="13" edge="1">
                    <mxGeometry relative="1" as="geometry"/>
                </mxCell>
                <mxCell id="59" style="edgeStyle=none;html=1;entryX=0.89;entryY=1;entryDx=0;entryDy=0;entryPerimeter=0;fontSize=12;" parent="1" source="28" target="13" edge="1">
                    <mxGeometry relative="1" as="geometry"/>
                </mxCell>
                <mxCell id="28" value="VendedorContrato" style="swimlane;fontStyle=0;childLayout=stackLayout;horizontal=1;startSize=26;fillColor=none;horizontalStack=0;resizeParent=1;resizeParentMax=0;resizeLast=0;collapsible=1;marginBottom=0;fontSize=12;" parent="1" vertex="1">
                    <mxGeometry x="30" y="380" width="210" height="156" as="geometry"/>
                </mxCell>
                <mxCell id="29" value="+ EntityAudit: EntityAudit" style="text;strokeColor=none;fillColor=none;align=left;verticalAlign=top;spacingLeft=4;spacingRight=4;overflow=hidden;rotatable=0;points=[[0,0.5],[1,0.5]];portConstraint=eastwest;fontSize=12;" parent="28" vertex="1">
                    <mxGeometry y="26" width="210" height="26" as="geometry"/>
                </mxCell>
                <mxCell id="30" value="+ VendedorId: Guid" style="text;strokeColor=none;fillColor=none;align=left;verticalAlign=top;spacingLeft=4;spacingRight=4;overflow=hidden;rotatable=0;points=[[0,0.5],[1,0.5]];portConstraint=eastwest;fontSize=12;" parent="28" vertex="1">
                    <mxGeometry y="52" width="210" height="26" as="geometry"/>
                </mxCell>
                <mxCell id="31" value="+ Vendedor: Vendedor" style="text;strokeColor=none;fillColor=none;align=left;verticalAlign=top;spacingLeft=4;spacingRight=4;overflow=hidden;rotatable=0;points=[[0,0.5],[1,0.5]];portConstraint=eastwest;fontSize=12;" parent="28" vertex="1">
                    <mxGeometry y="78" width="210" height="26" as="geometry"/>
                </mxCell>
                <mxCell id="32" value="+ ClienteContratoId: Guid" style="text;strokeColor=none;fillColor=none;align=left;verticalAlign=top;spacingLeft=4;spacingRight=4;overflow=hidden;rotatable=0;points=[[0,0.5],[1,0.5]];portConstraint=eastwest;fontSize=12;" parent="28" vertex="1">
                    <mxGeometry y="104" width="210" height="26" as="geometry"/>
                </mxCell>
                <mxCell id="33" value="+ ClienteContrato: ClienteContrato" style="text;strokeColor=none;fillColor=none;align=left;verticalAlign=top;spacingLeft=4;spacingRight=4;overflow=hidden;rotatable=0;points=[[0,0.5],[1,0.5]];portConstraint=eastwest;fontSize=12;" parent="28" vertex="1">
                    <mxGeometry y="130" width="210" height="26" as="geometry"/>
                </mxCell>
                <mxCell id="52" style="edgeStyle=none;html=1;fontSize=12;" parent="1" source="45" target="51" edge="1">
                    <mxGeometry relative="1" as="geometry"/>
                </mxCell>
                <mxCell id="53" style="edgeStyle=none;html=1;entryX=0.209;entryY=1.033;entryDx=0;entryDy=0;entryPerimeter=0;fontSize=12;" parent="1" source="45" target="51" edge="1">
                    <mxGeometry relative="1" as="geometry"/>
                </mxCell>
                <mxCell id="54" style="edgeStyle=none;html=1;entryX=0.804;entryY=1.022;entryDx=0;entryDy=0;entryPerimeter=0;fontSize=12;" parent="1" source="45" target="51" edge="1">
                    <mxGeometry relative="1" as="geometry"/>
                </mxCell>
                <mxCell id="45" value="ClienteContratoFatura" style="swimlane;fontStyle=0;childLayout=stackLayout;horizontal=1;startSize=26;fillColor=none;horizontalStack=0;resizeParent=1;resizeParentMax=0;resizeLast=0;collapsible=1;marginBottom=0;fontSize=12;" parent="1" vertex="1">
                    <mxGeometry x="410" y="590" width="230" height="156" as="geometry"/>
                </mxCell>
                <mxCell id="46" value="+ EntityAudit: EntityAudit" style="text;strokeColor=none;fillColor=none;align=left;verticalAlign=top;spacingLeft=4;spacingRight=4;overflow=hidden;rotatable=0;points=[[0,0.5],[1,0.5]];portConstraint=eastwest;fontSize=12;" parent="45" vertex="1">
                    <mxGeometry y="26" width="230" height="26" as="geometry"/>
                </mxCell>
                <mxCell id="47" value="+ ValorComissao: decimal" style="text;strokeColor=none;fillColor=none;align=left;verticalAlign=top;spacingLeft=4;spacingRight=4;overflow=hidden;rotatable=0;points=[[0,0.5],[1,0.5]];portConstraint=eastwest;fontSize=12;" parent="45" vertex="1">
                    <mxGeometry y="52" width="230" height="26" as="geometry"/>
                </mxCell>
                <mxCell id="48" value="+ ClienteContratoId: ClienteContratoId" style="text;strokeColor=none;fillColor=none;align=left;verticalAlign=top;spacingLeft=4;spacingRight=4;overflow=hidden;rotatable=0;points=[[0,0.5],[1,0.5]];portConstraint=eastwest;fontSize=12;" parent="45" vertex="1">
                    <mxGeometry y="78" width="230" height="26" as="geometry"/>
                </mxCell>
                <mxCell id="49" value="+ ClienteContratoId: Guid" style="text;strokeColor=none;fillColor=none;align=left;verticalAlign=top;spacingLeft=4;spacingRight=4;overflow=hidden;rotatable=0;points=[[0,0.5],[1,0.5]];portConstraint=eastwest;fontSize=12;" parent="45" vertex="1">
                    <mxGeometry y="104" width="230" height="26" as="geometry"/>
                </mxCell>
                <mxCell id="50" value="+ ClienteContrato: ClienteContrato" style="text;strokeColor=none;fillColor=none;align=left;verticalAlign=top;spacingLeft=4;spacingRight=4;overflow=hidden;rotatable=0;points=[[0,0.5],[1,0.5]];portConstraint=eastwest;fontSize=12;" parent="45" vertex="1">
                    <mxGeometry y="130" width="230" height="26" as="geometry"/>
                </mxCell>
                <mxCell id="51" value="ClienteContratos&lt;br&gt;&amp;nbsp;- Lista de faturas -" style="rounded=0;whiteSpace=wrap;html=1;fontSize=12;fillColor=#0050ef;fontColor=#ffffff;strokeColor=#001DBC;" parent="1" vertex="1">
                    <mxGeometry x="410" y="420" width="230" height="90" as="geometry"/>
                </mxCell>
            </root>
        </mxGraphModel>
    </diagram>
    <diagram id="xPJZApzN6peizSj4EJyi" name="Page-2">
        <mxGraphModel dx="1826" dy="790" grid="1" gridSize="10" guides="1" tooltips="1" connect="1" arrows="1" fold="1" page="1" pageScale="1" pageWidth="1169" pageHeight="827" math="0" shadow="0">
            <root>
                <mxCell id="bzFpp4pKSv_o9e-CWEXd-0"/>
                <mxCell id="bzFpp4pKSv_o9e-CWEXd-1" parent="bzFpp4pKSv_o9e-CWEXd-0"/>
                <mxCell id="bzFpp4pKSv_o9e-CWEXd-13" value="PROCESSO DE COMISSIONAMENTO" style="ellipse;whiteSpace=wrap;html=1;aspect=fixed;dashed=1;fillColor=none;" parent="bzFpp4pKSv_o9e-CWEXd-1" vertex="1">
                    <mxGeometry x="405" y="244" width="370" height="370" as="geometry"/>
                </mxCell>
                <mxCell id="bzFpp4pKSv_o9e-CWEXd-10" style="edgeStyle=none;html=1;" parent="bzFpp4pKSv_o9e-CWEXd-1" source="bzFpp4pKSv_o9e-CWEXd-2" target="bzFpp4pKSv_o9e-CWEXd-3" edge="1">
                    <mxGeometry relative="1" as="geometry"/>
                </mxCell>
                <mxCell id="bzFpp4pKSv_o9e-CWEXd-11" style="edgeStyle=none;html=1;" parent="bzFpp4pKSv_o9e-CWEXd-1" source="bzFpp4pKSv_o9e-CWEXd-2" target="bzFpp4pKSv_o9e-CWEXd-8" edge="1">
                    <mxGeometry relative="1" as="geometry"/>
                </mxCell>
                <mxCell id="bzFpp4pKSv_o9e-CWEXd-12" style="edgeStyle=none;html=1;entryX=0.5;entryY=0;entryDx=0;entryDy=0;" parent="bzFpp4pKSv_o9e-CWEXd-1" source="bzFpp4pKSv_o9e-CWEXd-2" target="bzFpp4pKSv_o9e-CWEXd-9" edge="1">
                    <mxGeometry relative="1" as="geometry">
                        <mxPoint x="860" y="650" as="targetPoint"/>
                    </mxGeometry>
                </mxCell>
                <mxCell id="bzFpp4pKSv_o9e-CWEXd-2" value="CONTRATO" style="rounded=0;whiteSpace=wrap;html=1;fillColor=#a20025;fontColor=#ffffff;strokeColor=#6F0000;" parent="bzFpp4pKSv_o9e-CWEXd-1" vertex="1">
                    <mxGeometry x="530" y="340" width="120" height="60" as="geometry"/>
                </mxCell>
                <mxCell id="bzFpp4pKSv_o9e-CWEXd-3" value="FATURA 1" style="rounded=0;whiteSpace=wrap;html=1;fillColor=#d80073;fontColor=#ffffff;strokeColor=#A50040;" parent="bzFpp4pKSv_o9e-CWEXd-1" vertex="1">
                    <mxGeometry x="360" y="554" width="120" height="60" as="geometry"/>
                </mxCell>
                <mxCell id="bzFpp4pKSv_o9e-CWEXd-7" style="edgeStyle=none;html=1;" parent="bzFpp4pKSv_o9e-CWEXd-1" source="bzFpp4pKSv_o9e-CWEXd-4" target="bzFpp4pKSv_o9e-CWEXd-2" edge="1">
                    <mxGeometry relative="1" as="geometry"/>
                </mxCell>
                <mxCell id="bzFpp4pKSv_o9e-CWEXd-4" value="VENDEDOR 1" style="rounded=0;whiteSpace=wrap;html=1;fillColor=#008a00;fontColor=#ffffff;strokeColor=#005700;" parent="bzFpp4pKSv_o9e-CWEXd-1" vertex="1">
                    <mxGeometry x="650" y="240" width="120" height="60" as="geometry"/>
                </mxCell>
                <mxCell id="bzFpp4pKSv_o9e-CWEXd-6" style="edgeStyle=none;html=1;" parent="bzFpp4pKSv_o9e-CWEXd-1" source="bzFpp4pKSv_o9e-CWEXd-5" target="bzFpp4pKSv_o9e-CWEXd-2" edge="1">
                    <mxGeometry relative="1" as="geometry"/>
                </mxCell>
                <mxCell id="bzFpp4pKSv_o9e-CWEXd-5" value="VENDEDOR 2" style="rounded=0;whiteSpace=wrap;html=1;fillColor=#0050ef;fontColor=#ffffff;strokeColor=#001DBC;" parent="bzFpp4pKSv_o9e-CWEXd-1" vertex="1">
                    <mxGeometry x="410" y="240" width="120" height="60" as="geometry"/>
                </mxCell>
                <mxCell id="bzFpp4pKSv_o9e-CWEXd-8" value="FATURA 3" style="rounded=0;whiteSpace=wrap;html=1;fillColor=#6a00ff;fontColor=#ffffff;strokeColor=#3700CC;" parent="bzFpp4pKSv_o9e-CWEXd-1" vertex="1">
                    <mxGeometry x="530" y="580" width="120" height="60" as="geometry"/>
                </mxCell>
                <mxCell id="bzFpp4pKSv_o9e-CWEXd-9" value="FATURA 4" style="rounded=0;whiteSpace=wrap;html=1;fillColor=#1ba1e2;fontColor=#ffffff;strokeColor=#006EAF;" parent="bzFpp4pKSv_o9e-CWEXd-1" vertex="1">
                    <mxGeometry x="710" y="554" width="120" height="60" as="geometry"/>
                </mxCell>
                <mxCell id="bzFpp4pKSv_o9e-CWEXd-14" value="" style="edgeStyle=segmentEdgeStyle;endArrow=classic;html=1;" parent="bzFpp4pKSv_o9e-CWEXd-1" source="bzFpp4pKSv_o9e-CWEXd-9" edge="1">
                    <mxGeometry width="50" height="50" relative="1" as="geometry">
                        <mxPoint x="100" y="430" as="sourcePoint"/>
                        <mxPoint x="920" y="480" as="targetPoint"/>
                        <Array as="points">
                            <mxPoint x="770" y="720"/>
                            <mxPoint x="870" y="720"/>
                            <mxPoint x="870" y="480"/>
                        </Array>
                    </mxGeometry>
                </mxCell>
                <mxCell id="bzFpp4pKSv_o9e-CWEXd-18" value="Quitado" style="text;strokeColor=none;fillColor=none;html=1;fontSize=24;fontStyle=1;verticalAlign=middle;align=center;dashed=1;" parent="bzFpp4pKSv_o9e-CWEXd-1" vertex="1">
                    <mxGeometry x="920" y="460" width="100" height="40" as="geometry"/>
                </mxCell>
                <mxCell id="bzFpp4pKSv_o9e-CWEXd-20" value="Competência" style="text;strokeColor=none;fillColor=none;html=1;fontSize=24;fontStyle=1;verticalAlign=middle;align=center;dashed=1;" parent="bzFpp4pKSv_o9e-CWEXd-1" vertex="1">
                    <mxGeometry x="820" y="340" width="190" height="40" as="geometry"/>
                </mxCell>
                <mxCell id="bzFpp4pKSv_o9e-CWEXd-24" style="edgeStyle=none;html=1;" parent="bzFpp4pKSv_o9e-CWEXd-1" source="bzFpp4pKSv_o9e-CWEXd-22" target="bzFpp4pKSv_o9e-CWEXd-23" edge="1">
                    <mxGeometry relative="1" as="geometry"/>
                </mxCell>
                <mxCell id="bzFpp4pKSv_o9e-CWEXd-22" value="Disparado processo de geração de comissão" style="triangle;whiteSpace=wrap;html=1;dashed=1;fillColor=none;" parent="bzFpp4pKSv_o9e-CWEXd-1" vertex="1">
                    <mxGeometry x="40" y="307" width="160" height="213.33" as="geometry"/>
                </mxCell>
                <mxCell id="bzFpp4pKSv_o9e-CWEXd-23" value="COMPETÊNCIA" style="rounded=1;whiteSpace=wrap;html=1;dashed=1;fillColor=#6a00ff;horizontal=0;fontColor=#ffffff;strokeColor=#3700CC;" parent="bzFpp4pKSv_o9e-CWEXd-1" vertex="1">
                    <mxGeometry x="250" y="199" width="30" height="430" as="geometry"/>
                </mxCell>
            </root>
        </mxGraphModel>
    </diagram>
    <diagram id="_3j10fdEf_icdi6i4k5d" name="Page-3">
        <mxGraphModel dx="1043" dy="790" grid="1" gridSize="10" guides="1" tooltips="1" connect="1" arrows="1" fold="1" page="1" pageScale="1" pageWidth="1169" pageHeight="827" math="0" shadow="0">
            <root>
                <mxCell id="OurQNfJTx2G7mQGxrtvT-0"/>
                <mxCell id="OurQNfJTx2G7mQGxrtvT-1" parent="OurQNfJTx2G7mQGxrtvT-0"/>
                <mxCell id="OurQNfJTx2G7mQGxrtvT-8" value="" style="edgeStyle=none;html=1;" parent="OurQNfJTx2G7mQGxrtvT-1" source="OurQNfJTx2G7mQGxrtvT-2" target="OurQNfJTx2G7mQGxrtvT-7" edge="1">
                    <mxGeometry relative="1" as="geometry"/>
                </mxCell>
                <mxCell id="OurQNfJTx2G7mQGxrtvT-2" value="&lt;b&gt;&lt;i&gt;&lt;u&gt;BOXAPP&lt;/u&gt;&lt;/i&gt;&lt;/b&gt;&lt;br&gt;SINCRONIZAR" style="rounded=1;whiteSpace=wrap;html=1;fillColor=#0050ef;fontColor=#ffffff;strokeColor=#001DBC;" parent="OurQNfJTx2G7mQGxrtvT-1" vertex="1">
                    <mxGeometry x="100" y="250" width="120" height="60" as="geometry"/>
                </mxCell>
                <mxCell id="OurQNfJTx2G7mQGxrtvT-3" value="&lt;b&gt;&lt;u&gt;&lt;i&gt;BOM CONTROLE&lt;br&gt;&lt;/i&gt;&lt;/u&gt;&lt;/b&gt;CONTRATOS FATURAS" style="rounded=1;whiteSpace=wrap;html=1;fillColor=#d80073;fontColor=#ffffff;strokeColor=#A50040;" parent="OurQNfJTx2G7mQGxrtvT-1" vertex="1">
                    <mxGeometry x="630" y="250" width="120" height="60" as="geometry"/>
                </mxCell>
                <mxCell id="OurQNfJTx2G7mQGxrtvT-7" value="OBTÉM TODOS OS CONTRATOS&lt;br&gt;(LOCAL)&amp;nbsp;" style="ellipse;whiteSpace=wrap;html=1;fillColor=#0050ef;strokeColor=#001DBC;fontColor=#ffffff;rounded=1;" parent="OurQNfJTx2G7mQGxrtvT-1" vertex="1">
                    <mxGeometry x="300" y="250" width="120" height="60" as="geometry"/>
                </mxCell>
            </root>
        </mxGraphModel>
    </diagram>
</mxfile>